<svg width="100%" height="100%"  viewBox="0 0 210 211" fill="none" xmlns="http://www.w3.org/2000/svg">
<g filter="url(#filter0_i_10_10)">
<ellipse cx="105" cy="104.5" rx="105" ry="104.5" fill="#B2B2B2"/>
</g>
<path d="M209.5 104.5C209.5 161.935 162.716 208.5 105 208.5C47.284 208.5 0.5 161.935 0.5 104.5C0.5 47.0646 47.284 0.5 105 0.5C162.716 0.5 209.5 47.0646 209.5 104.5Z" stroke="#120F0F" stroke-opacity="0.78"/>
<g filter="url(#filter1_i_10_10)">
<ellipse cx="104.5" cy="104" rx="90.5" ry="90" fill="#A3A3A3"/>
</g>
<g filter="url(#filter2_i_10_10)">
<ellipse cx="105" cy="104.5" rx="71" ry="70.5" fill="#979797"/>
</g>
<circle cx="104.5" cy="104.5" r="23.5" fill="white"/>
<path d="M62.5 136L29 176L33 180L38 184.5L52.5 196L61.5 200.5L65.5 202.5L69.5 204L73 205L76 206L81.5 207L86.5 208L92 209L103 209.735L116 209L128.5 206.5L146 201.5L155 196.5L160 193.5L162.5 192L165 190.5L169 187.5L173 184L180 177L140.5 136L97.5 169.5L62.5 136Z" fill="url(#paint0_linear_10_10)" stroke="black"/>
<g filter="url(#filter3_i_10_10)">
<path d="M180.5 177L29 176.5L37 184L41 187.5L45.5 190.5L164.833 191L169.5 187.5L173 184.5L180.5 177Z" fill="url(#paint1_linear_10_10)"/>
</g>
<path d="M180.5 177L29 176.5L37 184L41 187.5L45.5 190.5L164.833 191L169.5 187.5L173 184.5L180.5 177Z" stroke="#85A0D1" stroke-opacity="0.5" stroke-width="0.5"/>
<path d="M165 191L45.5 190.5L50.5 194.5L52 196L59 199.5L66 203L69.5 204.5L73.5 205.5L78.5 207L87.5 208.5L95 209.5L99 210H103.5H110L114.5 209.5L117.5 209L121.5 208L127 207L131.5 206L138.111 204.385L145.58 202.077L150.56 199.769L155.539 197L160.519 194.231L163.008 192.846L164.004 191.923L165 191Z" fill="url(#paint2_linear_10_10)" stroke="#85A0D1" stroke-opacity="0.75" stroke-width="0.5"/>
<defs>
<filter id="filter0_i_10_10" x="0" y="0" width="212" height="213" filterUnits="userSpaceOnUse" color-interpolation-filters="sRGB">
<feFlood flood-opacity="0" result="BackgroundImageFix"/>
<feBlend mode="normal" in="SourceGraphic" in2="BackgroundImageFix" result="shape"/>
<feColorMatrix in="SourceAlpha" type="matrix" values="0 0 0 0 0 0 0 0 0 0 0 0 0 0 0 0 0 0 127 0" result="hardAlpha"/>
<feOffset dx="2" dy="4"/>
<feGaussianBlur stdDeviation="2"/>
<feComposite in2="hardAlpha" operator="arithmetic" k2="-1" k3="1"/>
<feColorMatrix type="matrix" values="0 0 0 0 1 0 0 0 0 0.993333 0 0 0 0 0.993333 0 0 0 0.37 0"/>
<feBlend mode="normal" in2="shape" result="effect1_innerShadow_10_10"/>
</filter>
<filter id="filter1_i_10_10" x="14" y="14" width="181" height="184" filterUnits="userSpaceOnUse" color-interpolation-filters="sRGB">
<feFlood flood-opacity="0" result="BackgroundImageFix"/>
<feBlend mode="normal" in="SourceGraphic" in2="BackgroundImageFix" result="shape"/>
<feColorMatrix in="SourceAlpha" type="matrix" values="0 0 0 0 0 0 0 0 0 0 0 0 0 0 0 0 0 0 127 0" result="hardAlpha"/>
<feOffset dy="4"/>
<feGaussianBlur stdDeviation="2"/>
<feComposite in2="hardAlpha" operator="arithmetic" k2="-1" k3="1"/>
<feColorMatrix type="matrix" values="0 0 0 0 1 0 0 0 0 1 0 0 0 0 1 0 0 0 0.1 0"/>
<feBlend mode="normal" in2="shape" result="effect1_innerShadow_10_10"/>
</filter>
<filter id="filter2_i_10_10" x="34" y="34" width="142" height="145" filterUnits="userSpaceOnUse" color-interpolation-filters="sRGB">
<feFlood flood-opacity="0" result="BackgroundImageFix"/>
<feBlend mode="normal" in="SourceGraphic" in2="BackgroundImageFix" result="shape"/>
<feColorMatrix in="SourceAlpha" type="matrix" values="0 0 0 0 0 0 0 0 0 0 0 0 0 0 0 0 0 0 127 0" result="hardAlpha"/>
<feOffset dy="4"/>
<feGaussianBlur stdDeviation="2"/>
<feComposite in2="hardAlpha" operator="arithmetic" k2="-1" k3="1"/>
<feColorMatrix type="matrix" values="0 0 0 0 1 0 0 0 0 1 0 0 0 0 1 0 0 0 0.25 0"/>
<feBlend mode="normal" in2="shape" result="effect1_innerShadow_10_10"/>
</filter>
<filter id="filter3_i_10_10" x="28.3656" y="176.248" width="157.736" height="19.0024" filterUnits="userSpaceOnUse" color-interpolation-filters="sRGB">
<feFlood flood-opacity="0" result="BackgroundImageFix"/>
<feBlend mode="normal" in="SourceGraphic" in2="BackgroundImageFix" result="shape"/>
<feColorMatrix in="SourceAlpha" type="matrix" values="0 0 0 0 0 0 0 0 0 0 0 0 0 0 0 0 0 0 127 0" result="hardAlpha"/>
<feOffset dx="5" dy="4"/>
<feGaussianBlur stdDeviation="3.35"/>
<feComposite in2="hardAlpha" operator="arithmetic" k2="-1" k3="1"/>
<feColorMatrix type="matrix" values="0 0 0 0 0.482748 0 0 0 0 0.639354 0 0 0 0 0.922448 0 0 0 0.38 0"/>
<feBlend mode="normal" in2="shape" result="effect1_innerShadow_10_10"/>
</filter>
<linearGradient id="paint0_linear_10_10" x1="88.5" y1="161" x2="108" y2="232" gradientUnits="userSpaceOnUse">
<stop stop-color="#222222"/>
<stop offset="0.318275" stop-color="#414141"/>
<stop offset="1" stop-color="#787878"/>
</linearGradient>
<linearGradient id="paint1_linear_10_10" x1="59.5" y1="184.259" x2="175.5" y2="184.259" gradientUnits="userSpaceOnUse">
<stop stop-color="#484848"/>
<stop offset="1" stop-color="#797979"/>
</linearGradient>
<linearGradient id="paint2_linear_10_10" x1="44" y1="200" x2="164.502" y2="200" gradientUnits="userSpaceOnUse">
<stop stop-color="#B3B3B3" stop-opacity="0.5"/>
<stop offset="1" stop-color="#5E5E5E"/>
</linearGradient>
</defs>
</svg>
